<svg width="130" height="130" viewBox="0 0 130 130" fill="none" xmlns="http://www.w3.org/2000/svg">
<path d="M124.197 71.9321C124.197 71.9321 124.178 35.2893 104.553 17.7887C87.2305 2.34025 63.3799 -0.797945 47.3645 17.0656C41.658 23.4307 34.7573 30.0641 27.5899 34.5114C19.5536 39.4979 10.1595 41.776 4.68988 58.2873C-0.779743 74.7989 7.68976 99.0106 20.1128 107.583C32.5359 116.155 52.0026 112.969 68.7245 109.385C85.4464 105.8 122.74 117.4 124.197 71.9321Z" fill="#92E3A9"/>
<path opacity="0.7" d="M124.197 71.9321C124.197 71.9321 124.178 35.2893 104.553 17.7887C87.2305 2.34025 63.3799 -0.797945 47.3645 17.0656C41.658 23.4307 34.7573 30.0641 27.5899 34.5114C19.5536 39.4979 10.1595 41.776 4.68988 58.2873C-0.779743 74.7989 7.68976 99.0106 20.1128 107.583C32.5359 116.155 52.0026 112.969 68.7245 109.385C85.4464 105.8 122.74 117.4 124.197 71.9321Z" fill="white"/>
<path opacity="0.16" d="M64.5476 124.229C86.5738 124.229 104.43 122.051 104.43 119.365C104.43 116.678 86.5738 114.5 64.5476 114.5C42.5214 114.5 24.6657 116.678 24.6657 119.365C24.6657 122.051 42.5214 124.229 64.5476 124.229Z" fill="black"/>
<path opacity="0.07" d="M104.554 17.7879C101.761 15.2963 98.7979 13.1266 95.7258 11.3149L69.7733 50.3178L105.042 18.234C104.882 18.0817 104.719 17.9337 104.554 17.7879ZM81.3285 5.67136C77.2171 4.8378 73.0746 4.66022 69.0219 5.20622L69.7731 50.3178L81.3285 5.67136ZM54.1273 11.0398C51.7564 12.6921 49.4913 14.6936 47.3645 17.0661C46.6588 17.855 45.9347 18.6435 45.1942 19.4371L69.7733 50.3178L54.1273 11.0398ZM32.8344 30.8581C31.1106 32.1843 29.3582 33.4147 27.5912 34.5113C23.6987 36.9247 19.4883 38.7059 15.5613 41.7757L69.7733 50.3178L32.8344 30.8581ZM3.09036 66.7714C2.61586 73.809 3.95044 81.4276 6.53172 88.3163L69.7733 50.3178L3.09036 66.7714ZM69.7733 50.3178L24.6236 110.073C31.193 112.928 39.0881 113.443 47.2714 112.823L69.7733 50.3178ZM69.7733 50.3178L71.9222 108.891C76.5609 108.394 82.2292 108.548 88.1005 108.296L69.7733 50.3178ZM120.459 90.9048L69.7733 50.3178L109.235 103.516C113.832 100.946 117.771 96.9956 120.459 90.9048ZM122.602 55.8997L69.7731 50.3178L124.146 70.0081C124.036 67.3527 123.69 62.173 122.602 55.8997ZM114.046 29.9829L69.7733 50.3178L118.694 40.5205C117.448 36.9512 115.921 33.3788 114.046 29.9829Z" fill="black"/>
<path d="M107.376 23.3686C107.376 23.3686 104.542 24.2292 103.535 24.2396C102.527 24.25 99.534 23.7534 98.1708 22.6991C96.8076 21.6448 95.5981 20.3793 94.7531 19.4111C93.9081 18.4429 93.2799 18.4865 93.2186 19.7481C93.1572 21.0096 93.8922 22.4625 94.66 23.1814C95.4278 23.9003 96.6612 24.4894 96.714 24.7052C96.7668 24.921 96.9064 25.3287 96.9064 25.3287C96.9064 25.3287 94.6912 26.5582 93.3582 27.1061C92.0252 27.6539 91.0471 28.2014 91.364 28.7864C91.6809 29.3714 92.5161 30.0422 92.9913 30.5648C93.4666 31.0872 96.1397 32.98 96.9842 33.2384C97.8286 33.4969 98.5098 33.669 98.9222 33.6783C99.3348 33.6877 99.4547 33.8554 100.14 33.4664C100.826 33.0775 101.636 32.65 101.919 32.5489C102.202 32.448 102.605 32.5148 103.689 31.6891C104.772 30.8633 105.625 29.9993 105.625 29.9993L109.835 28.8642L107.376 23.3686Z" fill="white" stroke="#263238" stroke-width="0.75" stroke-miterlimit="10"/>
<path d="M105.846 23.4991L108.744 30.4567L111.64 29.7544L108.34 22.7297L105.846 23.4991Z" fill="white" stroke="#263238" stroke-width="0.75" stroke-miterlimit="10"/>
<path d="M112.331 20.5865L107.169 22.6541L110.648 30.9205L118.62 29.4333L118.26 28.8746L112.331 20.5865Z" fill="#263238" stroke="#263238" stroke-width="0.75" stroke-miterlimit="10"/>
<path d="M96.9886 25.7267C96.9886 25.7267 97.9831 27.755 98.2951 28.1913C98.6071 28.6276 100.387 29.1299 100.771 28.957" stroke="#263238" stroke-width="0.75" stroke-miterlimit="10"/>
<path d="M99.5826 30.7707C99.5826 30.7707 100.173 30.6025 100.326 31.1012C100.48 31.5999 99.8816 32.8905 99.6039 33.4953C99.3262 34.0998 99.1344 34.1864 98.3814 34.2685C97.6284 34.3507 97.1342 33.9433 97.1342 33.9433C97.1342 33.9433 97.949 33.3094 98.0689 33.1224C98.1882 32.935 99.5826 30.7707 99.5826 30.7707Z" fill="white" stroke="#263238" stroke-width="0.75" stroke-miterlimit="10"/>
<path d="M95.0992 32.6591C95.0992 32.6591 96.2036 34.2028 96.6688 34.073C97.1339 33.943 97.7093 33.6838 97.9202 33.482C98.131 33.2805 99.3242 31.6152 99.4822 31.1977C99.6403 30.7804 99.6302 30.128 99.1741 29.8452C98.7184 29.5625 98.7184 29.5625 98.7184 29.5625C98.7184 29.5625 98.1097 30.2008 97.2707 30.8012C96.4317 31.4013 94.8303 32.1412 94.8017 32.3138C94.7729 32.4867 95.0992 32.6591 95.0992 32.6591Z" fill="white" stroke="#263238" stroke-width="0.75" stroke-miterlimit="10"/>
<path d="M93.1073 30.9387C93.1073 30.9387 92.9781 31.1834 93.1941 31.4855C93.4102 31.7876 93.6556 32.9818 94.3415 32.9475C95.0274 32.9134 96.6719 32.0918 96.974 31.8757C97.2761 31.6597 98.5985 29.7497 98.7181 29.5625C98.838 29.3753 98.4058 28.7713 98.1705 28.5844C97.9352 28.3975 97.2834 28.7625 97.2834 28.7625C97.2834 28.7625 94.6514 30.544 93.1073 30.9387Z" fill="white" stroke="#263238" stroke-width="0.75" stroke-miterlimit="10"/>
<path d="M92.5153 28.2675C92.5153 28.2675 94.1652 28.3046 94.4146 28.2277C94.6639 28.1507 96.467 27.6219 96.467 27.6219C96.467 27.6219 96.7405 27.5785 97.0286 27.9812C97.3167 28.3839 97.1828 28.8348 96.8952 29.1421C96.6077 29.4494 95.5438 30.5149 94.9874 30.6592C94.431 30.8035 93.0017 30.8623 92.5556 30.8768C92.1094 30.8916 91.884 30.6472 91.7875 30.1579C91.6913 29.6689 91.3645 28.7864 91.3645 28.7864" fill="white"/>
<path d="M92.5153 28.2675C92.5153 28.2675 94.1652 28.3046 94.4146 28.2277C94.6639 28.1507 96.467 27.6219 96.467 27.6219C96.467 27.6219 96.7405 27.5785 97.0286 27.9812C97.3167 28.3839 97.1828 28.8348 96.8952 29.1421C96.6077 29.4494 95.5438 30.5149 94.9874 30.6592C94.431 30.8035 93.0017 30.8623 92.5556 30.8768C92.1094 30.8916 91.884 30.6472 91.7875 30.1579C91.6913 29.6689 91.3645 28.7864 91.3645 28.7864" stroke="#263238" stroke-width="0.75" stroke-miterlimit="10"/>
<path d="M115.595 87.1718C115.595 87.1718 112.79 86.2228 111.965 85.645C111.139 85.0673 108.994 82.9218 108.499 81.2713C108.003 79.6208 107.756 77.8879 107.632 76.6087C107.508 75.3295 106.972 74.9996 106.188 75.9899C105.404 76.9803 105.156 78.5894 105.363 79.6208C105.569 80.6523 106.229 81.849 106.147 82.0552C106.064 82.2617 105.94 82.6743 105.94 82.6743C105.94 82.6743 103.423 82.3854 102.02 82.0552C100.617 81.725 99.5033 81.6013 99.4209 82.2617C99.3385 82.9218 99.6271 83.9535 99.7097 84.655C99.7922 85.3564 100.865 88.451 101.402 89.1524C101.938 89.8539 102.392 90.3903 102.722 90.6378C103.052 90.8853 103.052 91.0918 103.836 91.1742C104.62 91.2566 105.528 91.3804 105.817 91.4631C106.105 91.5455 106.394 91.8343 107.756 91.7933C109.118 91.7522 110.314 91.5457 110.314 91.5457L114.399 93.0725L115.595 87.1718Z" fill="white" stroke="#263238" stroke-width="0.75" stroke-miterlimit="10"/>
<path d="M114.275 86.3878L112.583 93.7323L115.348 94.8464L116.751 87.2131L114.275 86.3878Z" fill="white" stroke="#263238" stroke-width="0.75" stroke-miterlimit="10"/>
<path d="M121.244 87.7924L115.843 86.4703L113.863 95.218L121.211 98.6466L121.244 97.9828V87.7924Z" fill="#263238" stroke="#263238" stroke-width="0.75" stroke-miterlimit="10"/>
<path d="M105.775 83.0456C105.775 83.0456 105.404 85.2738 105.404 85.8101C105.404 86.3465 106.559 87.7906 106.972 87.8732" stroke="#263238" stroke-width="0.75" stroke-miterlimit="10"/>
<path d="M104.95 88.6574C104.95 88.6574 105.528 88.8636 105.363 89.3589C105.198 89.8539 103.96 90.5554 103.382 90.8856C102.804 91.2158 102.598 91.1745 101.938 90.8032C101.278 90.4319 101.113 89.8128 101.113 89.8128C101.113 89.8128 102.144 89.7715 102.351 89.6891C102.557 89.6064 104.95 88.6574 104.95 88.6574Z" fill="white" stroke="#263238" stroke-width="0.75" stroke-miterlimit="10"/>
<path d="M100.205 87.5844C100.205 87.5844 100.205 89.4824 100.659 89.6475C101.113 89.8126 101.732 89.9363 102.02 89.895C102.309 89.8537 104.249 89.1935 104.62 88.946C104.991 88.6985 105.363 88.1621 105.156 87.6668C104.95 87.1718 104.95 87.1718 104.95 87.1718C104.95 87.1718 104.083 87.3369 103.052 87.3369C102.02 87.3369 100.287 87.0067 100.163 87.1307C100.04 87.2547 100.205 87.5844 100.205 87.5844Z" fill="white" stroke="#263238" stroke-width="0.75" stroke-miterlimit="10"/>
<path d="M99.586 85.0262C99.586 85.0262 99.3385 85.15 99.3385 85.5213C99.3385 85.8926 98.8434 87.0067 99.4209 87.3779C99.9986 87.7492 101.814 88.0381 102.185 88.0381C102.557 88.0381 104.744 87.2542 104.95 87.1715C105.156 87.0891 105.156 86.3463 105.074 86.0574C104.991 85.7685 104.249 85.6861 104.249 85.6861C104.249 85.6861 101.071 85.604 99.586 85.0262Z" fill="white" stroke="#263238" stroke-width="0.75" stroke-miterlimit="10"/>
<path d="M100.659 82.5092C100.659 82.5092 101.979 83.4995 102.227 83.5819C102.474 83.6644 104.249 84.2834 104.249 84.2834C104.249 84.2834 104.496 84.4072 104.496 84.9022C104.496 85.3973 104.125 85.6861 103.712 85.7688C103.3 85.8512 101.814 86.099 101.278 85.8926C100.741 85.6864 99.5449 84.9022 99.1734 84.6547C98.8021 84.4072 98.7608 84.077 98.9672 83.6233C99.1734 83.1693 99.4212 82.2617 99.4212 82.2617" fill="white"/>
<path d="M100.659 82.5092C100.659 82.5092 101.979 83.4995 102.227 83.5819C102.474 83.6644 104.249 84.2834 104.249 84.2834C104.249 84.2834 104.496 84.4072 104.496 84.9022C104.496 85.3973 104.125 85.6861 103.712 85.7688C103.3 85.8512 101.814 86.099 101.278 85.8926C100.741 85.6864 99.5449 84.9022 99.1734 84.6547C98.8021 84.4072 98.7608 84.077 98.9672 83.6233C99.1734 83.1693 99.4212 82.2617 99.4212 82.2617" stroke="#263238" stroke-width="0.75" stroke-miterlimit="10"/>
<path d="M16.5976 86.2391C16.5976 86.2391 19.4035 85.2901 20.2285 84.7124C21.0538 84.1347 23.1993 81.9892 23.6946 80.3387C24.1896 78.6882 24.4374 76.9553 24.5612 75.6761C24.6849 74.3969 25.2213 74.067 26.0055 75.0573C26.7894 76.0477 27.0369 77.6568 26.8307 78.6882C26.6243 79.7196 25.9641 80.9164 26.0468 81.1226C26.1292 81.3288 26.253 81.7414 26.253 81.7414C26.253 81.7414 28.77 81.4525 30.1727 81.1226C31.5757 80.7924 32.6898 80.6686 32.7722 81.3288C32.8546 81.9889 32.5658 83.0206 32.4834 83.7221C32.4009 84.4236 31.3282 87.5181 30.7915 88.2196C30.2549 88.921 29.8012 89.4574 29.4713 89.705C29.1411 89.9525 29.1411 90.1589 28.3572 90.2413C27.5733 90.3237 26.6653 90.4478 26.3765 90.5302C26.0876 90.6126 25.7988 90.9015 24.4371 90.8604C23.0755 90.819 21.879 90.6129 21.879 90.6129L17.7941 92.1396L16.5976 86.2391Z" fill="white" stroke="#263238" stroke-width="0.75" stroke-miterlimit="10"/>
<path d="M17.9179 85.455L19.6097 92.7997L16.8451 93.9138L15.4424 86.2805L17.9179 85.455Z" fill="white" stroke="#263238" stroke-width="0.75" stroke-miterlimit="10"/>
<path d="M10.9491 86.8595L16.3501 85.5377L18.3305 94.2851L10.9821 97.7137L10.9491 97.0502V86.8595Z" fill="#263238" stroke="#263238" stroke-width="0.75" stroke-miterlimit="10"/>
<path d="M26.4178 82.1129C26.4178 82.1129 26.7891 84.3411 26.7891 84.8775C26.7891 85.4139 25.6339 86.8582 25.221 86.9406" stroke="#263238" stroke-width="0.75" stroke-miterlimit="10"/>
<path d="M27.2431 87.7245C27.2431 87.7245 26.6653 87.931 26.8304 88.426C26.9955 88.921 28.2334 89.6225 28.8111 89.9527C29.3888 90.2829 29.595 90.2416 30.2552 89.8703C30.9153 89.499 31.0804 88.88 31.0804 88.88C31.0804 88.88 30.049 88.8386 29.8425 88.7562C29.6364 88.6735 27.2431 87.7245 27.2431 87.7245Z" fill="white" stroke="#263238" stroke-width="0.75" stroke-miterlimit="10"/>
<path d="M31.9883 86.6518C31.9883 86.6518 31.9883 88.5498 31.5344 88.7149C31.0804 88.88 30.4616 89.0037 30.1727 88.9624C29.8839 88.921 27.9445 88.2609 27.5733 88.0134C27.202 87.7659 26.8304 87.2295 27.0369 86.7342C27.2431 86.2391 27.2431 86.2391 27.2431 86.2391C27.2431 86.2391 28.1096 86.4042 29.1411 86.4042C30.1725 86.4042 31.9056 86.074 32.0294 86.1978C32.1532 86.3216 31.9883 86.6518 31.9883 86.6518Z" fill="white" stroke="#263238" stroke-width="0.75" stroke-miterlimit="10"/>
<path d="M32.6071 84.0934C32.6071 84.0934 32.8546 84.2171 32.8546 84.5884C32.8546 84.9597 33.3497 86.0738 32.7722 86.4453C32.1945 86.8166 30.3792 87.1055 30.0076 87.1055C29.6364 87.1055 27.4495 86.3216 27.2431 86.2389C27.0369 86.1565 27.0369 85.4137 27.1193 85.1248C27.2017 84.8359 27.9445 84.7535 27.9445 84.7535C27.9445 84.7535 31.1217 84.6711 32.6071 84.0934Z" fill="white" stroke="#263238" stroke-width="0.75" stroke-miterlimit="10"/>
<path d="M31.5344 81.5766C31.5344 81.5766 30.2141 82.5669 29.9663 82.6493C29.7188 82.7317 27.9445 83.3508 27.9445 83.3508C27.9445 83.3508 27.697 83.4746 27.697 83.9696C27.697 84.4646 28.0683 84.7535 28.4809 84.8362C28.8935 84.9189 30.3789 85.1664 30.9153 84.9599C31.4517 84.7535 32.6482 83.9696 33.0197 83.7221C33.391 83.4746 33.4324 83.1444 33.2259 82.6907C33.0195 82.237 32.772 81.329 32.772 81.329" fill="white"/>
<path d="M31.5344 81.5766C31.5344 81.5766 30.2141 82.5669 29.9663 82.6493C29.7188 82.7317 27.9445 83.3508 27.9445 83.3508C27.9445 83.3508 27.697 83.4746 27.697 83.9696C27.697 84.4646 28.0683 84.7535 28.4809 84.8362C28.8935 84.9189 30.3789 85.1664 30.9153 84.9599C31.4517 84.7535 32.6482 83.9696 33.0197 83.7221C33.391 83.4746 33.4324 83.1444 33.2259 82.6907C33.0195 82.237 32.772 81.329 32.772 81.329" stroke="#263238" stroke-width="0.75" stroke-miterlimit="10"/>
<path d="M19.649 25.8378C19.649 25.8378 22.4832 26.6984 23.4905 26.7088C24.4977 26.7192 27.4911 26.2226 28.8543 25.1683C30.2172 24.114 31.427 22.8485 32.272 21.8803C33.117 20.9121 33.7451 20.9557 33.8068 22.2173C33.8681 23.4788 33.1331 24.9317 32.3651 25.6506C31.597 26.3695 30.3638 26.9586 30.3111 27.1744C30.2583 27.3902 30.1187 27.7979 30.1187 27.7979C30.1187 27.7979 32.3339 29.0274 33.6669 29.5753C34.9999 30.1231 35.978 30.6706 35.6611 31.2556C35.3441 31.8406 34.509 32.5114 34.0337 33.034C33.5585 33.5564 30.8854 35.4492 30.0409 35.7076C29.1964 35.9661 28.5152 36.1382 28.1029 36.1475C27.6903 36.1569 27.5704 36.3246 26.8848 35.9356C26.1992 35.5467 25.389 35.119 25.1059 35.0181C24.823 34.9172 24.42 34.984 23.3366 34.1583C22.2531 33.3325 21.4001 32.4685 21.4001 32.4685L17.1896 31.3334L19.649 25.8378Z" fill="white" stroke="#263238" stroke-width="0.75" stroke-miterlimit="10"/>
<path d="M21.1791 25.9685L18.2814 32.9261L15.385 32.2236L18.6854 25.1992L21.1791 25.9685Z" fill="white" stroke="#263238" stroke-width="0.75" stroke-miterlimit="10"/>
<path d="M14.6942 23.056L19.8557 25.1233L16.3769 33.39L8.40554 31.9028L8.76486 31.3438L14.6942 23.056Z" fill="#263238" stroke="#263238" stroke-width="0.75" stroke-miterlimit="10"/>
<path d="M30.0365 28.196C30.0365 28.196 29.042 30.2242 28.73 30.6605C28.418 31.0968 26.638 31.5991 26.2545 31.4262" stroke="#263238" stroke-width="0.75" stroke-miterlimit="10"/>
<path d="M27.4427 33.2399C27.4427 33.2399 26.8528 33.0717 26.6989 33.5704C26.545 34.0691 27.1437 35.36 27.4214 35.9645C27.6991 36.569 27.891 36.6556 28.6439 36.7377C29.3969 36.8199 29.8914 36.4125 29.8914 36.4125C29.8914 36.4125 29.0766 35.7786 28.9567 35.5916C28.8369 35.4044 27.4427 33.2399 27.4427 33.2399Z" fill="white" stroke="#263238" stroke-width="0.75" stroke-miterlimit="10"/>
<path d="M31.9259 35.1284C31.9259 35.1284 30.8214 36.672 30.3563 36.5422C29.8912 36.4125 29.3158 36.153 29.1049 35.9513C28.8941 35.7495 27.7009 34.0842 27.5431 33.6669C27.385 33.2496 27.3952 32.5973 27.8512 32.3146C28.307 32.032 28.307 32.032 28.307 32.032C28.307 32.032 28.9156 32.6703 29.7547 33.2707C30.5937 33.871 32.195 34.6107 32.2236 34.7833C32.2522 34.956 31.9259 35.1284 31.9259 35.1284Z" fill="white" stroke="#263238" stroke-width="0.75" stroke-miterlimit="10"/>
<path d="M33.9178 33.4079C33.9178 33.4079 34.047 33.6526 33.8309 33.9547C33.6149 34.2568 33.3694 35.451 32.6836 35.4167C31.9977 35.3826 30.3532 34.5613 30.0511 34.345C29.7489 34.1289 28.4266 32.2189 28.3067 32.0317C28.1869 31.8445 28.619 31.2406 28.8543 31.0536C29.0896 30.8667 29.7414 31.2317 29.7414 31.2317C29.7414 31.2317 32.3736 33.0135 33.9178 33.4079Z" fill="white" stroke="#263238" stroke-width="0.75" stroke-miterlimit="10"/>
<path d="M34.5098 30.7367C34.5098 30.7367 32.8598 30.7738 32.6105 30.6969C32.3612 30.6199 30.5581 30.0911 30.5581 30.0911C30.5581 30.0911 30.2845 30.0477 29.9965 30.4504C29.7084 30.8531 29.8423 31.304 30.1298 31.6113C30.4174 31.9184 31.4813 32.9841 32.0377 33.1284C32.5941 33.2727 34.0233 33.3315 34.4695 33.346C34.9157 33.3608 35.1411 33.1162 35.2375 32.6271C35.3337 32.1378 35.6606 31.2556 35.6606 31.2556" fill="white"/>
<path d="M34.5098 30.7367C34.5098 30.7367 32.8598 30.7738 32.6105 30.6969C32.3612 30.6199 30.5581 30.0911 30.5581 30.0911C30.5581 30.0911 30.2845 30.0477 29.9965 30.4504C29.7084 30.8531 29.8423 31.304 30.1298 31.6113C30.4174 31.9184 31.4813 32.9841 32.0377 33.1284C32.5941 33.2727 34.0233 33.3315 34.4695 33.346C34.9157 33.3608 35.1411 33.1162 35.2375 32.6271C35.3337 32.1378 35.6606 31.2556 35.6606 31.2556" stroke="#263238" stroke-width="0.75" stroke-miterlimit="10"/>
<path d="M57.7169 63.5299C57.7169 63.5299 55.8958 71.5018 55.8251 75.2507C55.7544 78.9997 55.9603 92.5124 56.031 95.4124C56.1018 98.3125 57.375 107.72 57.375 108.569C57.375 109.418 57.5871 111.044 57.5871 111.044L57.0214 114.086C57.0214 114.086 56.5263 114.51 55.2531 115.218C53.9799 115.925 52.4945 116.844 52.0702 117.34C51.8502 117.596 51.9483 117.995 52.2639 118.116C52.6638 118.269 53.2236 118.435 53.8385 118.471C55.041 118.542 57.0214 118.542 58.0824 118.259C59.1435 117.976 59.9921 117.057 60.4874 116.703C60.9825 116.349 60.9825 116.349 60.9825 116.349L61.0532 117.128C61.0532 117.128 61.1239 117.128 61.7604 116.986C62.3971 116.845 63.2458 116.349 63.2458 116.349C63.2458 116.349 63.3165 115.147 63.3165 114.44C63.3165 113.732 62.9629 112.459 62.8922 112.176C62.8215 111.893 62.8922 109.347 62.68 108.498C62.4679 107.649 62.3264 107.861 62.185 106.305C62.0435 104.749 63.3168 90.0367 63.246 89.6124C63.1753 89.188 65.0476 76.434 65.0476 76.434C65.0476 76.434 68.6218 93.0782 69.7533 96.2613C70.8851 99.4443 71.4509 105.598 71.4509 106.023C71.4509 106.447 72.0873 111.469 72.3705 112.176C72.6534 112.883 73.4315 115.076 73.4315 115.076C73.4315 115.076 74.5633 116.774 75.0584 117.623C75.5534 118.472 77.2512 119.179 78.5242 119.391C79.7974 119.603 80.7877 119.674 80.8584 117.976C80.9292 116.279 80.2927 115.147 79.2316 114.369C78.1706 113.591 77.9584 112.884 77.9584 112.884C77.9584 112.884 78.0998 110.974 77.9584 109.771C77.817 108.569 77.0388 107.65 76.9681 105.174C76.8973 102.698 76.4023 89.6833 75.9777 87.6322C75.5534 85.5811 74.9939 71.8559 75.0646 69.9462C75.1353 68.0365 74.8868 62.7156 74.8868 62.7156L57.6644 62.5193L57.7169 63.5299Z" fill="#263238" stroke="#263238" stroke-width="0.75" stroke-miterlimit="10"/>
<path d="M64.4766 35.0319C64.4766 35.0319 61.8493 36.5825 59.9867 37.5136C58.1243 38.4449 55.8542 38.9685 55.6215 39.4924C55.3888 40.0163 51.3729 48.5719 50.616 49.7359C49.8594 50.8999 48.0553 53.1697 48.4045 54.4502C48.7536 55.7307 50.2086 57.4766 51.1399 57.3604C52.0712 57.2439 53.9336 56.7203 54.6902 55.3815C55.4468 54.0428 57.2512 49.7359 57.2512 49.7359C57.2512 49.7359 57.5422 53.7519 57.4839 55.7307C57.4257 57.7096 57.4257 59.3393 57.3092 60.3286C57.1927 61.3179 56.6691 62.5404 56.9018 62.8896C57.1345 63.2387 57.4257 63.5879 57.7166 63.5297C58.0076 63.4714 62.3727 63.4132 63.7114 63.4714C65.0502 63.5297 71.103 63.4714 72.3835 63.5297C73.664 63.5879 74.7698 62.9475 74.8862 62.7148C75.0027 62.4821 75.2354 62.133 75.1189 60.8525C75.0025 59.572 75.2354 55.6725 75.5846 54.1593C75.9338 52.6461 78.0291 46.8257 78.0291 46.8257C78.0291 46.8257 83.5583 51.1909 84.7223 51.5401C85.8863 51.8892 89.0292 51.3653 90.077 50.0851C91.1245 48.8046 91.4737 47.8153 90.8336 46.9422C90.1935 46.0691 87.8652 45.2543 85.4209 42.6353C82.9764 40.0163 82.0451 38.7941 80.3574 37.9792C78.6695 37.1644 75.2357 36.0586 74.4208 35.7094C73.606 35.3602 73.3733 35.1855 72.8494 34.9528C72.3255 34.7201 71.1032 34.2545 68.8334 34.1962C66.5634 34.1377 64.4766 35.0319 64.4766 35.0319Z" fill="#92E3A9" stroke="#263238" stroke-width="0.75" stroke-miterlimit="10"/>
<path d="M56.0794 45.6128C56.1597 45.8936 57.2512 49.7359 57.2512 49.7359L55.6382 46.5356" stroke="#263238" stroke-width="0.75" stroke-miterlimit="10"/>
<path d="M78.0294 46.826C77.7855 46.8166 75.4985 45.5327 75.4985 45.5327" stroke="#263238" stroke-width="0.75" stroke-miterlimit="10"/>
<path d="M74.335 45.3721C74.335 45.3721 75.2578 46.5756 76.0604 46.8164" stroke="#263238" stroke-width="0.75" stroke-miterlimit="10"/>
<path d="M64.1519 38.6027L64.8822 41.3621C64.8822 41.3621 62.5693 52.9272 62.204 54.8748C61.8387 56.8228 61.7575 58.4457 61.7575 58.4457L63.7866 62.4629L66.3432 58.1209C66.3432 58.1209 66.0998 52.6427 66.0184 48.2602C65.9373 43.8776 66.0995 41.7674 66.059 41.6458C66.0184 41.5241 68.6156 39.6167 68.6156 39.6167C68.6156 39.6167 70.1171 37.953 70.1982 37.6688C70.2793 37.3846 69.1431 37.7499 68.8997 37.9935C68.6564 38.2372 67.9258 38.6833 66.8707 38.4805C65.8156 38.2777 64.4361 37.101 64.233 37.6691C64.0302 38.2374 64.1519 38.6027 64.1519 38.6027Z" fill="#263238" stroke="#263238" stroke-width="0.75" stroke-miterlimit="10"/>
<path d="M65.8967 33.8954C65.7751 33.9765 64.8011 34.2201 64.4764 35.0316C64.1516 35.8431 62.4879 39.5764 62.0012 40.1851C61.5142 40.7937 62.2853 40.5504 62.9346 40.1445C63.5838 39.7386 64.1519 38.156 64.5172 38.8461C64.8825 39.5358 65.9376 39.82 65.9376 39.82C65.9376 39.82 68.1288 39.4142 68.6158 39.0897C69.1028 38.7652 69.5492 38.3188 69.5492 38.3188C69.5492 38.3188 71.4158 41.1187 71.9433 41.3623C72.4708 41.6057 72.552 41.2001 72.5925 40.7537C72.6331 40.3073 72.9984 37.6696 73.5259 35.9247C74.0535 34.1798 73.0389 33.6117 72.3897 32.8814C71.7405 32.1511 71.0099 32.638 70.2796 32.7192C69.549 32.8 65.8967 33.8954 65.8967 33.8954Z" fill="#92E3A9" stroke="#263238" stroke-width="0.75" stroke-miterlimit="10"/>
<path d="M64.7843 21.4011C64.7843 21.4011 63.5166 23.3262 63.7513 23.7957C63.9861 24.2653 63.9861 24.8758 63.7513 25.2044C63.5166 25.533 63.235 25.9558 63.3288 26.754C63.4227 27.5522 62.9531 31.5903 63.6575 32.0598C64.3618 32.5294 65.1132 32.7642 65.1132 32.7642C65.1132 32.7642 65.9114 39.5257 66.1933 39.3377C66.4751 39.15 70.5132 35.0178 70.9827 34.1258C71.4523 33.2337 72.0157 31.9657 72.0157 31.9657C72.0157 31.9657 73.6121 28.9136 74.5512 27.6458C75.4903 26.378 76.5704 24.0302 76.2415 22.8093C75.9128 21.5883 74.2223 20.6963 73.4241 20.039C72.6259 19.3817 73.1423 17.8792 72.0154 17.1278C70.8886 16.3766 69.5267 16.1886 68.6347 16.5173C67.7426 16.8459 67.6955 17.5503 66.6155 16.8459C65.5355 16.1416 64.5025 15.4372 62.859 16.2354C61.2156 17.0336 60.8869 19.851 61.8728 20.6024C62.859 21.3543 64.7843 21.4011 64.7843 21.4011Z" fill="white" stroke="#263238" stroke-width="0.75" stroke-miterlimit="10"/>
<path d="M73.4237 20.0396C72.6255 19.3824 73.1419 17.8798 72.015 17.1284C70.8882 16.377 69.5263 16.1893 68.6343 16.5179C67.7422 16.8466 67.6952 17.5509 66.6151 16.8466C65.5351 16.1422 64.5021 15.4379 62.8586 16.2361C61.2152 17.0343 60.8865 19.8517 61.8725 20.6031C62.8586 21.3542 64.7837 21.4013 64.7837 21.4013C64.7837 21.4013 66.1924 20.744 67.1315 20.2274C68.0706 19.7107 70.1836 20.556 70.5593 20.8846C70.935 21.2133 70.3716 20.9785 70.2777 21.589C70.1839 22.1995 71.3578 23.1854 71.8741 23.6549C72.3905 24.1245 71.7803 24.4531 71.6394 25.0636C71.4984 25.6741 72.0618 25.9089 72.3905 25.6741C72.7191 25.4393 73.7521 24.1245 74.1278 24.8759C74.5035 25.6273 75.0669 26.7541 74.034 27.5523C73.001 28.3505 72.2496 28.1628 72.2496 28.1628C72.2496 28.1628 71.9129 30.1965 72.8887 30.3564C73.4126 29.4191 74.068 28.2978 74.5503 27.6465C75.4894 26.3787 76.5695 24.0309 76.2406 22.8099C75.9125 21.5892 74.2219 20.6969 73.4237 20.0396Z" fill="#263238" stroke="#263238" stroke-width="0.75" stroke-miterlimit="10"/>
<path d="M67.3197 23.8898C67.3197 23.8898 67.7893 23.7021 68.2588 23.7489" stroke="#263238" stroke-width="0.5" stroke-miterlimit="10"/>
<path d="M64.916 24.3508C64.916 24.3508 64.5063 24.4361 64.2499 24.59" stroke="#263238" stroke-width="0.5" stroke-miterlimit="10"/>
<path d="M64.9332 23.0701C64.9332 23.0701 65.2236 23.5994 65.0697 24.1119C64.916 24.6241 63.4644 25.7683 63.4813 25.9904C63.4985 26.2124 64.3352 26.6734 64.318 26.8614C64.3009 27.0491 64.2496 27.3567 64.2496 27.3567" stroke="#263238" stroke-width="0.75" stroke-miterlimit="10"/>
<path d="M68.1096 24.5388C68.2793 24.5388 68.4169 24.3706 68.4169 24.1631C68.4169 23.9556 68.2793 23.7874 68.1096 23.7874C67.9399 23.7874 67.8023 23.9556 67.8023 24.1631C67.8023 24.3706 67.9399 24.5388 68.1096 24.5388Z" fill="#263238" stroke="#263238" stroke-width="0.5" stroke-miterlimit="10"/>
<path d="M67.5119 24.7777C67.5631 24.7606 68.3145 24.4533 68.8098 24.4873" stroke="#263238" stroke-width="0.75" stroke-miterlimit="10"/>
<path d="M66.4269 22.516C66.4269 22.516 67.4341 21.5816 68.2144 21.7706C68.9946 21.9596 69.2905 22.7094 69.1662 22.7118C69.042 22.7141 68.6483 22.1328 68.218 22.0896C67.7877 22.0462 67.4866 22.2492 67.1195 22.4346C66.7527 22.62 66.5228 22.7534 66.4269 22.516Z" fill="#263238" stroke="#263238" stroke-width="0.5" stroke-miterlimit="10"/>
<path d="M65.0016 23.2578C65.0016 23.1813 64.882 22.8309 64.421 22.8992C63.96 22.9676 63.6108 23.8046 63.7512 23.796C63.8916 23.7874 64.0453 23.258 64.4038 23.2068C64.7624 23.1553 65.0016 23.719 65.0016 23.2578Z" fill="#263238" stroke="#263238" stroke-width="0.5" stroke-miterlimit="10"/>
<path d="M64.2158 28.4154C64.2158 28.4154 64.9501 28.3301 65.9066 28.2105C66.8629 28.0909 68.212 27.9032 68.4341 27.2199C68.6561 26.5369 68.6049 26.1781 68.6049 26.1781" stroke="#263238" stroke-width="0.75" stroke-miterlimit="10"/>
<path d="M68.0924 26.1269C68.1608 26.1097 68.7073 26.1097 68.9294 26.1781" stroke="#263238" stroke-width="0.75" stroke-miterlimit="10"/>
<path d="M72.0343 29.5017C72.0343 29.5017 71.8531 30.511 70.9992 31.0544C70.1451 31.5978 63.8823 32.2189 64.0895 32.2967C64.2964 32.3744 65.1131 32.7644 65.1131 32.7644L65.3575 34.9882C65.3575 34.9882 66.548 33.8494 68.6184 32.7883C70.6885 31.7273 71.9826 31.3648 72.0343 29.5017Z" fill="#263238" stroke="#263238" stroke-width="0.5" stroke-miterlimit="10"/>
<path d="M75.5266 59.8632C75.5266 59.8632 74.3626 59.8049 74.0717 59.7467C73.7807 59.6884 72.8494 58.8154 72.442 58.8736C72.0346 58.9318 71.278 59.7467 70.987 60.445C70.6961 61.1434 70.5796 61.4926 70.5796 61.4926C70.5796 61.4926 69.5321 62.4239 70.0557 63.064C70.5796 63.7041 71.1615 63.4714 71.1615 63.4714C71.1615 63.4714 71.5107 64.0536 71.9763 64.1116C72.442 64.1698 73.0239 64.1698 73.0239 64.1698C73.0239 64.1698 73.6057 64.3445 73.9552 64.2863C74.3044 64.228 74.6535 63.9953 74.6535 63.9953C74.6535 63.9953 75.061 64.0536 75.3519 63.8209C75.5661 63.6495 76.5994 62.596 77.1306 62.0513C77.3214 61.8558 77.4472 61.7255 77.4472 61.7255L75.5266 59.8632Z" fill="white" stroke="#263238" stroke-width="0.75" stroke-miterlimit="10"/>
<path d="M85.2465 47.8735C85.2465 47.8735 83.0929 50.2598 82.3945 51.4238C81.6962 52.5878 79.5426 55.6145 78.7277 56.5456C77.9129 57.4769 75.061 59.7467 75.061 59.7467C75.061 59.7467 75.934 61.6091 76.5742 61.9003C77.2143 62.1912 77.7382 62.3077 77.7382 62.3077L80.0662 60.5615C80.0662 60.5615 84.4896 57.1857 86.8176 55.2651C89.1457 53.3444 92.405 50.7834 92.6377 49.6777C92.8704 48.5719 92.696 47.9898 91.532 47.1167C90.3679 46.2436 89.1457 45.8944 89.1457 45.8944" fill="#92E3A9"/>
<path d="M85.2465 47.8735C85.2465 47.8735 83.0929 50.2598 82.3945 51.4238C81.6962 52.5878 79.5426 55.6145 78.7277 56.5456C77.9129 57.4769 75.061 59.7467 75.061 59.7467C75.061 59.7467 75.934 61.6091 76.5742 61.9003C77.2143 62.1912 77.7382 62.3077 77.7382 62.3077L80.0662 60.5615C80.0662 60.5615 84.4896 57.1857 86.8176 55.2651C89.1457 53.3444 92.405 50.7834 92.6377 49.6777C92.8704 48.5719 92.696 47.9898 91.532 47.1167C90.3679 46.2436 89.1457 45.8944 89.1457 45.8944" stroke="#263238" stroke-width="0.75" stroke-miterlimit="10"/>
<path d="M76.8654 58.2917C76.8654 58.2917 77.3893 60.8527 79.1934 60.8527" stroke="#263238" stroke-width="0.75" stroke-miterlimit="10"/>
<path d="M51.5055 39.4339C51.5055 39.4339 51.7462 41.4801 51.8666 42.4029C51.987 43.3256 52.2678 43.7268 52.2678 43.7268C52.2678 43.7268 50.382 47.9396 50.3019 48.06C50.2216 48.1803 48.2557 51.8716 47.9346 52.3128C47.6138 52.754 46.8512 54.1583 47.3327 55.041C47.8143 55.9237 48.5766 57.7291 49.5797 57.7691C50.5827 57.8092 51.987 57.2073 52.9498 56.6457C53.9126 56.0841 54.2337 55.7229 54.314 54.118C54.3943 52.513 54.354 49.6244 54.6351 48.0997C54.9159 46.5751 55.1166 44.9701 55.3171 44.3685C55.5178 43.7666 56.6813 43.9673 57.0825 43.7265C57.4837 43.4858 57.8448 42.9642 58.5671 42.6431C59.2894 42.3223 60.2922 42.4024 60.5329 42.4827C60.7737 42.563 61.2149 42.2019 61.0945 41.7604C60.9742 41.3189 60.1718 41.0784 59.3694 41.1585C58.5671 41.2389 57.8448 41.4796 57.6441 41.359C57.4434 41.2386 57.2429 39.1121 57.2429 39.1121C57.2429 39.1121 54.3943 39.3528 53.3913 39.3929C52.3882 39.4339 51.5055 39.4339 51.5055 39.4339Z" fill="white" stroke="#263238" stroke-width="0.75" stroke-miterlimit="10"/>
<path d="M55.919 37.8693C55.919 37.8693 55.959 40.5174 55.959 40.7581C55.959 40.9989 56.1998 41.1996 56.4002 41.1593C56.601 41.1193 57.1225 41.3197 57.2429 40.7181C57.3633 40.1162 57.604 38.4311 57.4837 38.0299C57.3633 37.6285 56.2801 37.4681 55.919 37.8693Z" fill="white" stroke="#263238" stroke-width="0.75" stroke-miterlimit="10"/>
<path d="M55.919 37.8693C55.919 37.8693 54.6351 37.5484 54.274 37.7489C53.9128 37.9493 54.4747 40.7982 54.5147 41.0389C54.5548 41.2797 55.1166 41.4001 55.3574 41.3197C55.5981 41.2394 55.9593 41.079 55.9593 40.7581C55.9593 40.4373 55.919 37.8693 55.919 37.8693Z" fill="white" stroke="#263238" stroke-width="0.75" stroke-miterlimit="10"/>
<path d="M53.9932 37.8292C53.9932 37.8292 53.1505 37.6688 52.9097 37.9496C52.669 38.2304 52.5889 38.6316 52.669 39.3538C52.7493 40.0761 53.1505 41.1593 53.3109 41.4001C53.4713 41.6408 53.9929 41.6809 54.314 41.5605C54.6351 41.4401 54.5147 41.0389 54.5147 41.0389C54.5147 41.0389 54.3543 40.8785 54.314 39.6346C54.2737 38.3908 54.274 37.7489 54.274 37.7489L53.9932 37.8292Z" fill="white" stroke="#263238" stroke-width="0.75" stroke-miterlimit="10"/>
<path d="M52.5889 38.3105C52.4285 38.3505 51.4254 38.3908 51.3851 38.792C51.3451 39.1932 51.7059 41.079 51.8666 41.2797C52.027 41.4804 52.4685 41.4001 52.6289 41.3197C52.7894 41.2394 53.0702 41.119 53.0301 40.8785C52.9901 40.6377 52.5889 38.3105 52.5889 38.3105Z" fill="white" stroke="#263238" stroke-width="0.75" stroke-miterlimit="10"/>
<path d="M52.9097 46.2548C52.1986 46.1812 51.8032 45.6287 51.6025 45.2096C51.051 46.4357 50.35 47.9879 50.3017 48.0602C50.2213 48.1806 48.2555 51.8718 47.9344 52.313C47.6135 52.7542 46.851 54.1585 47.3325 55.0412C47.814 55.9239 48.5763 57.7293 49.5794 57.7694C50.5825 57.8094 51.9867 57.2078 52.9495 56.6459C53.9123 56.0841 54.2334 55.7232 54.3137 54.1182C54.3941 52.5132 54.3538 49.6246 54.6346 48.1C54.7724 47.352 54.8907 46.5855 54.9994 45.9269C54.3793 46.1209 53.5486 46.3208 52.9097 46.2548Z" fill="#92E3A9" stroke="#263238" stroke-width="0.75" stroke-miterlimit="10"/>
<path d="M54.7555 41.8413C54.7555 41.8413 54.0735 42.4432 53.9932 42.9647C53.9128 43.4863 54.1939 43.9278 54.1939 43.9278" fill="white"/>
<path d="M54.7555 41.8413C54.7555 41.8413 54.0735 42.4432 53.9932 42.9647C53.9128 43.4863 54.1939 43.9278 54.1939 43.9278" stroke="#263238" stroke-width="0.75" stroke-miterlimit="10"/>
</svg>
