<svg width="160" height="160" viewBox="0 0 160 160" fill="none" xmlns="http://www.w3.org/2000/svg">
<path d="M79.4 144.363H15.1939C15.1939 144.363 -5.58336 41.6678 47.5763 20.3107C89.7926 3.35009 80.3683 42.888 125.451 56.6631C180.476 73.4762 139.906 143.909 139.906 143.909L79.4 144.363Z" fill="#FDEDEE"/>
<path d="M108.792 23.327C113.481 25.6854 123.396 32.2771 121.468 37.6307C119.744 42.9523 110.644 36.8518 107.386 34.2691C104.875 32.2912 99.185 24.8317 105.92 26.2509C109.39 26.9446 115.492 33.4115 116.16 36.6061C118.832 49.384 97.9158 35.5462 100.445 33.1913C104 29.7478 118.5 47.4771 106.797 45.0835C103.803 44.5216 97.0867 38.4598 102.936 40.1213C107.764 41.6329 107.605 47.4313 103.381 47.9901" stroke="#FC6A5A" stroke-width="1.8857" stroke-miterlimit="10"/>
<path d="M78.4039 50.8701C78.4039 50.8701 77.5147 61.7206 82.851 63.3216C88.1873 64.9225 106.989 82.3891 111.667 78.0854C120.561 69.903 121.095 69.0137 117.359 65.2784C114.486 62.4048 85.5194 53.7161 85.5194 53.7161C85.5194 53.7161 82.8513 46.9568 78.7601 46.9568C74.6686 46.9568 78.4039 50.8701 78.4039 50.8701Z" fill="#965450"/>
<path d="M83.4134 49.9766C82.2518 48.415 80.6595 46.9568 78.7594 46.9568C74.6682 46.9568 78.4035 50.8701 78.4035 50.8701C78.4035 50.8701 77.6086 60.6086 82.0662 62.9917C82.5546 58.6573 83.0179 54.3203 83.4134 49.9766Z" fill="#76413B"/>
<path d="M69.3322 84.4893C69.3322 84.4893 105.264 62.9661 109.177 64.2112C115.985 66.3773 117.359 72.7494 117.359 72.7494C117.359 72.7494 107.754 85.2009 89.6106 94.8064C71.4666 104.412 69.3322 84.4893 69.3322 84.4893Z" fill="#965450"/>
<path d="M87.9178 73.8112C78.3978 79.0589 69.3322 84.4893 69.3322 84.4893C69.3322 84.4893 71.4669 104.412 89.6102 94.8061C93 93.0115 96.0909 91.1178 98.8778 89.2243C95.5286 83.888 91.6797 78.8339 87.9178 73.8112Z" fill="#76413B"/>
<path d="M70.7552 79.3305C70.7552 79.3305 83.2067 73.6384 86.4083 72.7491C86.4083 72.7491 93.5235 89.2918 94.4128 96.407C94.4128 96.407 83.5622 104.056 75.2019 107.613C66.8416 111.171 70.7552 79.3305 70.7552 79.3305Z" fill="#6F96BD"/>
<path d="M70.2054 85.1391C69.5315 94.1452 69.1366 110.194 75.2019 107.613C78.9981 105.998 83.3053 103.54 86.8794 101.337C83.1402 95.6227 79.207 90.0419 74.5942 85.0191C73.1219 84.9135 71.6605 84.9817 70.2054 85.1391Z" fill="#4F7DA3"/>
<path d="M51.7222 67.2349C51.7222 67.2349 52.7894 77.0182 47.631 80.0422C42.4726 83.0662 32.1555 77.552 29.4874 91.6041C26.8192 105.657 72.7117 83.7776 72.7117 83.7776L67.1974 66.5235L51.7222 67.2349Z" fill="#965450"/>
<path d="M53.6787 67.2412C53.656 70.1459 53.2294 73.1628 53.7171 76.047C54.1654 78.6995 55.4022 80.9085 56.9818 83.0502C58.4598 85.0547 60.159 86.9212 62.0966 88.4451C68.2038 85.9267 72.712 83.7779 72.712 83.7779L67.1978 66.5238L53.6605 67.1462C53.6682 67.1763 53.679 67.2051 53.6787 67.2412Z" fill="#76413B"/>
<path d="M45.8523 80.2202C45.8523 80.2202 57.0587 90.5369 69.1543 85.6454L78.5819 78.2637C78.5819 78.2637 80.6014 104.551 84.9854 132.694C88.5723 155.72 40.6939 133.94 40.6939 133.94C40.6939 133.94 24.8628 96.5853 29.4875 87.5133C34.1121 78.4413 45.8523 80.2202 45.8523 80.2202Z" fill="#6F96BD"/>
<path d="M84.5306 129.879C83.5578 129.843 82.5856 129.782 81.6144 129.684C73.4317 128.854 65.6976 125.288 59.0989 120.46C52.3965 115.556 47.0022 109.165 42.1936 102.439C38.143 96.7728 34.5421 90.7834 31.6704 84.4426C30.847 85.2954 30.1027 86.3056 29.487 87.5133C24.8621 96.585 40.6934 133.94 40.6934 133.94C40.6934 133.94 87.6986 152.662 84.985 132.694C84.857 131.749 84.679 130.815 84.5306 129.879Z" fill="#4F7DA3"/>
<path d="M44.0733 106.724C44.0733 106.724 45.1405 122.377 44.4291 127.18C44.4291 127.18 77.0083 132.62 83.7677 134.754C90.527 136.889 92.503 143.053 92.503 143.053C92.503 143.053 41.5827 145.146 31.7997 142.656C22.0163 140.165 24.329 103.878 24.329 103.878L44.0733 106.724Z" fill="#965450"/>
<path d="M44.56 116.272C44.3859 111.306 44.0736 106.724 44.0736 106.724L24.3293 103.878C24.3293 103.878 24.0525 108.224 24.096 114.011C30.407 116.498 37.6297 116.946 44.56 116.272Z" fill="#76413B"/>
<path d="M36.2467 81.6432C36.2467 81.6432 20.5936 84.1334 22.0166 110.637C22.0166 110.637 36.2467 115.618 47.809 112.06C47.809 112.06 48.6982 81.2874 36.2467 81.6432Z" fill="#6F96BD"/>
<path d="M69.5101 41.7984C69.5101 41.7984 84.6298 41.6205 81.9616 54.6058C79.2934 67.5907 80.0051 77.9078 76.8032 80.7539C73.6013 83.6 54.9242 84.6672 54.3907 66.7014C53.8573 48.7357 57.0586 41.2646 69.5101 41.7984Z" fill="#965450"/>
<path d="M54.5683 61.7206C54.5683 61.7206 55.6355 55.6726 50.655 55.8505C45.6746 56.0284 49.5878 70.0806 53.5011 68.1241C57.4144 66.1676 54.5683 61.7206 54.5683 61.7206Z" fill="#965450"/>
<path d="M48.2534 59.7641C48.2534 59.7641 48.2534 57.0959 50.3878 56.2067C51.7811 55.6262 53.7322 56.8735 54.1232 58.7859C54.9235 62.6991 49.1427 78.1747 59.6374 83.6889L59.5485 82.8886C59.5485 82.8886 62.6614 85.8236 69.1539 85.6457L69.3318 84.4895L69.6877 85.8236C69.6877 85.8236 77.7811 85.6457 78.6704 80.3983L78.2256 82.4438C78.2256 82.4438 80.0934 81.8211 80.449 77.8188C80.8048 73.8166 79.9152 69.8143 79.9152 69.8143C79.9152 69.8143 78.2253 78.2636 76.9802 77.9967C75.735 77.7299 77.9584 69.2806 75.824 68.8361C73.6896 68.3913 61.5939 65.9011 61.5939 70.3481C61.5939 70.3481 63.8173 77.4633 60.9712 77.0185C58.1251 76.5737 56.6131 75.4175 56.969 67.7689C57.3248 60.1203 58.6589 52.3823 58.6589 52.3823C58.6589 52.3823 62.928 53.0937 63.3725 46.6902C63.3725 46.6902 69.4205 54.4278 78.6701 53.5385C78.6701 53.5385 72.4445 52.6492 69.5984 49.8031C69.5984 49.8031 81.0717 56.4735 90.4992 49.0918L87.3862 49.2697C87.3862 49.2697 91.6554 47.5798 90.9437 41.3542C90.9437 41.3542 89.6096 44.4671 87.6528 45.0895C87.6528 45.0895 90.4989 43.1327 89.7872 39.5753C89.7872 39.5753 87.208 43.1327 84.6288 43.7555C84.6288 43.7555 89.2538 43.3107 88.4531 36.8182L85.2512 38.686C85.2512 38.686 87.3856 37.5299 87.3856 35.3062C87.3856 35.3062 81.6045 38.3302 76.8909 36.8182C72.177 35.3062 60.3482 30.1478 57.0576 40.4646C57.0576 40.4646 52.7885 37.7964 48.5194 42.1545C44.2512 46.5119 48.2534 59.7641 48.2534 59.7641Z" fill="#352C38"/>
<path d="M46.6528 42.4211C47.3549 41.7049 48.1619 41.0905 49.0282 40.5721C49.2454 40.4432 49.4669 40.3212 49.6918 40.2044C49.9184 40.0915 50.1472 39.9817 50.3818 39.8835C50.6163 39.7862 50.8531 39.6912 51.097 39.6147C51.3382 39.5312 51.5872 39.47 51.8362 39.4102L52.2134 39.3331L52.5955 39.2784C52.8512 39.2521 53.1091 39.224 53.368 39.2278C53.6269 39.2182 53.8858 39.2419 54.145 39.2595C54.4019 39.2972 54.6608 39.3292 54.913 39.3958C55.1693 39.4457 55.4138 39.5379 55.6627 39.6153C55.9021 39.7168 56.1501 39.8032 56.3779 39.9296C56.6141 40.0409 56.8362 40.1763 57.0563 40.3148C57.2797 40.4489 57.4806 40.6137 57.6928 40.7638L57.2272 41.118C56.9715 40.471 56.8867 39.8342 56.8848 39.1731C56.879 38.5155 57.0227 37.8611 57.2531 37.2476L57.4422 36.7923C57.5174 36.647 57.6048 36.5081 57.6861 36.366C57.8378 36.0729 58.0509 35.8256 58.2496 35.5673C58.6637 35.0675 59.1392 34.6224 59.655 34.2432C59.7837 34.1481 59.904 34.0384 60.04 33.9555L60.4467 33.7043C60.7203 33.5417 60.9827 33.3545 61.2746 33.2307L62.1312 32.8195L62.2384 32.7683C62.3008 32.7404 62.3181 32.7369 62.36 32.72L62.577 32.6377C62.7248 32.5852 62.8586 32.5232 63.0182 32.4784C63.6509 32.2777 64.2774 32.1545 64.919 32.0908C65.5587 32.0416 66.2026 32.0406 66.8352 32.1145C67.4669 32.1865 68.0934 32.2937 68.703 32.4518C69.3142 32.6038 69.9158 32.7843 70.504 32.9929C71.6842 33.4016 72.8288 33.8752 73.9808 34.3062C74.5568 34.5222 75.1363 34.7241 75.7251 34.8854C76.313 35.0476 76.9088 35.1856 77.5149 35.2374C78.1197 35.2873 78.7334 35.255 79.3235 35.1017C79.9123 34.9478 80.4765 34.6851 80.9834 34.3276C80.5072 34.7216 79.9629 35.0483 79.3632 35.2384C78.7661 35.4339 78.1306 35.5072 77.5008 35.4934C76.2371 35.4544 75.0131 35.1132 73.8336 34.7299C72.648 34.351 71.4957 33.9008 70.3235 33.5417C69.7386 33.3584 69.1514 33.1926 68.5594 33.0572C67.9683 32.9158 67.3702 32.8262 66.7728 32.7696C66.1744 32.711 65.5763 32.7276 64.984 32.7731C64.3946 32.8345 63.8042 32.9584 63.2576 33.1334C63.119 33.1715 62.9709 33.24 62.8278 33.2918L62.6115 33.3753C62.5818 33.3875 62.5248 33.4073 62.5178 33.4131L62.416 33.4627L61.6026 33.8598C61.3242 33.9808 61.08 34.1552 60.8208 34.3059L60.4365 34.5392C60.3075 34.616 60.1981 34.7171 60.0778 34.8044C59.5952 35.1536 59.159 35.5587 58.7824 36.007C58.6032 36.238 58.407 36.4588 58.2736 36.718C58.201 36.8438 58.1213 36.9664 58.0534 37.0944L57.8806 37.4931C57.6678 38.0294 57.528 38.6016 57.5229 39.1836C57.5082 39.7558 57.5894 40.368 57.7795 40.8771L58.1376 41.8352L57.3139 41.2316C57.12 41.0896 56.9392 40.9273 56.7363 40.798C56.537 40.6636 56.3357 40.5315 56.1216 40.4227C55.9149 40.2985 55.6902 40.2137 55.4726 40.112C55.2461 40.0345 55.0237 39.9411 54.7891 39.8883C54.5587 39.8185 54.3206 39.7836 54.0842 39.7388C53.8451 39.7126 53.6058 39.6793 53.3635 39.6777C53.1219 39.663 52.8794 39.6793 52.6371 39.6931L52.2739 39.7286L51.9126 39.7862C51.673 39.832 51.433 39.8819 51.1968 39.9488C50.9584 40.0076 50.7248 40.0854 50.4918 40.1657C50.2589 40.2467 50.0301 40.3398 49.8022 40.4364C49.576 40.5369 49.352 40.6428 49.1312 40.7564C48.6906 40.9846 48.2618 41.2393 47.8493 41.519C47.4358 41.798 47.0294 42.0908 46.6528 42.4211Z" fill="#352C38"/>
<path d="M45.7632 36.462C46.3635 36.399 46.9683 36.3846 47.5725 36.3916C48.1766 36.4003 48.7821 36.4278 49.384 36.4976C49.6848 36.5318 49.9856 36.5699 50.2848 36.6195C50.5846 36.6646 50.8826 36.7228 51.1795 36.7859C51.4771 36.8476 51.7715 36.9235 52.0656 37.0009C52.3574 37.0867 52.6506 37.1705 52.9357 37.279C53.224 37.3776 53.505 37.4992 53.7846 37.6211L54.2 37.8156L54.6048 38.0323C54.7418 38.1008 54.8678 38.1891 55 38.2665C55.1325 38.344 55.2608 38.4281 55.3846 38.519C55.641 38.6889 55.8768 38.8864 56.1158 39.0806C56.3408 39.2908 56.5718 39.4953 56.7731 39.7302C56.9894 39.9507 57.1645 40.2076 57.3485 40.4547C57.5146 40.7148 57.6845 40.9731 57.8173 41.2521C57.9706 41.5209 58.0694 41.8144 58.1917 42.0966L57.8976 42.2416C57.4813 41.5456 57.1274 40.8284 56.8147 40.087C56.5088 39.3446 56.2595 38.576 56.1018 37.7856C56.0608 37.5884 56.0294 37.3891 56.0032 37.1891C55.976 36.9891 55.9603 36.7878 55.9494 36.5862C55.945 36.3843 55.9373 36.182 55.9549 35.9801C55.9642 35.7782 55.9958 35.5772 56.032 35.3785C56.0547 35.2796 56.0739 35.1804 56.0998 35.0828L56.1917 34.7936C56.2662 34.6057 56.3443 34.4192 56.4493 34.2467C56.4944 34.1564 56.5549 34.0755 56.6138 33.9939C56.6704 33.9107 56.7306 33.8304 56.8016 33.7593C56.9306 33.6051 57.0861 33.4784 57.2368 33.3488C57.0954 33.4896 56.9507 33.6252 56.8346 33.7865C56.7696 33.8614 56.7165 33.9446 56.665 34.0288C56.6115 34.1116 56.5571 34.1936 56.5178 34.2841C56.4243 34.4576 56.3584 34.6428 56.296 34.8284L56.2221 35.1129C56.2022 35.2086 56.1888 35.3062 56.1718 35.4022C56.1472 35.5961 56.1267 35.7913 56.1286 35.9872C56.121 36.1827 56.1328 36.3788 56.1443 36.574C56.1613 36.7696 56.183 36.9644 56.2157 37.158C56.2474 37.3516 56.2842 37.5449 56.3306 37.736C56.5066 38.503 56.785 39.2441 57.095 39.9683C57.408 40.6902 57.769 41.4003 58.177 42.0659L57.8829 42.2108C57.7622 41.9424 57.6656 41.6624 57.5162 41.408C57.3869 41.143 57.2221 40.8992 57.0618 40.6531C56.8842 40.4195 56.7133 40.1795 56.511 39.9654C56.3222 39.7395 56.1027 39.542 55.8899 39.3382C55.6627 39.15 55.4387 38.9577 55.1936 38.7916C55.0755 38.7027 54.9526 38.6204 54.8256 38.5443C54.6989 38.4681 54.5782 38.3814 54.4461 38.3136L54.056 38.0995L53.6547 37.9062C53.3837 37.7846 53.112 37.663 52.831 37.5638C52.553 37.4572 52.2694 37.3654 51.9862 37.2716C51.7002 37.1865 51.4134 37.1024 51.1229 37.0323C50.8326 36.9606 50.5408 36.8937 50.2461 36.8396C49.9523 36.7811 49.6563 36.734 49.3597 36.6905C48.7658 36.608 48.1686 36.5388 47.5686 36.5011C46.9683 36.4646 46.3661 36.4457 45.7632 36.462Z" fill="#352C38"/>
<path d="M63.1952 71.2371C63.1952 71.2371 65.063 65.367 74.4016 73.2829L63.1952 71.2371Z" fill="white"/>
<path d="M74.4016 57.2739C74.4819 58.2205 74.5085 59.1667 74.5219 60.1123L74.5194 61.5302L74.4806 62.9472C74.4394 63.8912 74.3894 64.8355 74.3037 65.7786C74.2637 66.2506 74.2163 66.7216 74.161 67.1923C74.0998 67.6643 74.0314 68.135 73.9562 68.6042L73.8973 68.9718L73.5805 68.8138C73.2883 68.6682 72.9955 68.5245 72.7062 68.3722L71.8368 67.9194C71.2602 67.6109 70.6845 67.3005 70.1197 66.9664C70.745 67.1664 71.3594 67.3901 71.9731 67.6157L72.8893 67.9642C73.1952 68.079 73.4973 68.2026 73.8003 68.3238L73.4246 68.5334C73.4515 68.0646 73.4848 67.5978 73.5258 67.1318C73.5517 66.6627 73.5766 66.193 73.6141 65.7251C73.6541 65.2573 73.6643 64.7856 73.7053 64.3171L73.8051 62.9085C73.8803 61.9696 73.9565 61.0298 74.0525 60.0906C74.104 59.6211 74.1482 59.151 74.2093 58.6819C74.2621 58.2125 74.3293 57.7434 74.4016 57.2739Z" fill="#59221E"/>
<path d="M52.0781 66.1677C51.888 65.9232 51.7235 65.6553 51.6058 65.3638C51.5802 65.2896 51.5453 65.2182 51.527 65.1411C51.5094 65.064 51.4806 64.9888 51.4723 64.9088C51.4659 64.8288 51.4458 64.7494 51.4512 64.6678C51.4602 64.5869 51.4512 64.5024 51.4768 64.4227C51.5053 64.3449 51.5133 64.2566 51.561 64.1862C51.6086 64.1174 51.6422 64.0336 51.705 63.9779C51.7674 63.9219 51.8294 63.8637 51.8944 63.8102L52.113 63.6931C52.1846 63.6477 52.264 63.6323 52.3411 63.607L52.5744 63.5373L53.0486 63.4675L52.937 63.5677C53.017 63.0073 53.056 62.4349 53.0835 61.8678C53.1078 61.2998 53.0992 60.7309 53.0486 60.1696C52.9962 59.6109 52.8976 59.0502 52.6822 58.5501C52.576 58.3008 52.4403 58.0665 52.2618 57.8771C52.0822 57.6899 51.8582 57.5558 51.6099 57.4921C51.3597 57.4313 51.0982 57.4147 50.8211 57.4633C50.5552 57.5049 50.3053 57.5834 50.0822 57.7258C49.8627 57.8666 49.68 58.0624 49.5514 58.2976C49.4214 58.5318 49.3405 58.7977 49.2931 59.0707C49.1978 59.6201 49.239 60.1933 49.3069 60.7571C49.3824 61.3222 49.512 61.8822 49.6771 62.4326C49.4525 61.9027 49.2886 61.3472 49.1686 60.7805C49.0502 60.2141 48.992 59.6269 49.0637 59.0368C49.1014 58.7427 49.175 58.447 49.312 58.1718C49.4477 57.8979 49.6522 57.6451 49.9142 57.4717C50.1715 57.2963 50.479 57.1939 50.7779 57.1417C51.0656 57.0854 51.3923 57.0861 51.6973 57.1616C52.0054 57.2378 52.2934 57.4083 52.513 57.6352C52.7315 57.8637 52.8883 58.1334 53.009 58.4102C53.2467 58.9683 53.3395 59.5581 53.3914 60.1395C53.4429 60.7229 53.4291 61.3059 53.3939 61.8845C53.3587 62.4643 53.2813 63.0365 53.1773 63.6099L53.161 63.7005L53.0656 63.7101L52.6186 63.7555L52.4045 63.8099C52.3338 63.8298 52.2582 63.8403 52.1965 63.8774L52.001 63.9702L51.8371 64.1033C51.7818 64.1478 51.7533 64.2131 51.7075 64.2669C51.6618 64.3216 51.6531 64.3958 51.6224 64.4598C51.5946 64.5257 51.5987 64.6016 51.5846 64.6726C51.5738 64.745 51.5878 64.8198 51.5878 64.8941C51.5898 64.9686 51.6122 65.0419 51.6234 65.1165C51.6352 65.1913 51.664 65.2624 51.6835 65.336C51.7789 65.6253 51.9126 65.9059 52.0781 66.1677Z" fill="#59221E"/>
<path d="M75.0243 54.7833C75.0243 54.7833 75.0979 54.8912 75.2269 55.08C75.2906 55.1708 75.3706 55.278 75.4592 55.3968C75.5485 55.5158 75.6467 55.646 75.7597 55.7811C75.8621 55.9206 75.9968 56.0556 76.1168 56.2035C76.255 56.3411 76.3789 56.495 76.5325 56.632C76.6093 56.7001 76.6742 56.7792 76.7533 56.847C76.8342 56.9132 76.9139 56.9811 76.9904 57.0531C77.144 57.1958 77.3258 57.3136 77.4867 57.4524C77.6643 57.5744 77.8422 57.6963 78.017 57.8166C78.2061 57.918 78.3786 58.0451 78.561 58.1481C78.7475 58.2435 78.9264 58.3462 79.0976 58.4492C79.2746 58.5388 79.447 58.6211 79.6054 58.7084C79.7632 58.799 79.9117 58.8806 80.0486 58.9414C80.1843 59.007 80.303 59.0752 80.4022 59.1292C80.6006 59.2393 80.7165 59.3193 80.7165 59.3193C80.7165 59.3193 80.5898 59.3632 80.3638 59.4096C80.2509 59.432 80.112 59.4614 79.9523 59.4828C79.8723 59.4944 79.7869 59.5056 79.697 59.512C79.6074 59.5116 79.513 59.511 79.4147 59.5107C79.2176 59.5043 79.0013 59.4976 78.7741 59.4707C78.5504 59.4272 78.313 59.375 78.0688 59.31C77.8275 59.2374 77.5856 59.1286 77.3405 59.0195C77.0989 58.9017 76.8714 58.7427 76.6397 58.5952C76.432 58.4118 76.2054 58.2499 76.0285 58.0403C75.8432 57.8393 75.6739 57.6316 75.5418 57.4076C75.3939 57.1961 75.2979 56.9616 75.2003 56.7504C75.1222 56.5273 75.0461 56.3216 75.0118 56.1193C74.9686 55.9212 74.9485 55.736 74.9411 55.5721C74.9315 55.4089 74.9443 55.2636 74.9536 55.1475C74.9763 54.9126 75.0243 54.7833 75.0243 54.7833Z" fill="#1A141C"/>
<path d="M72.1782 54.5168C72.1782 54.5168 72.127 54.6822 71.9725 54.9421C71.8906 55.0653 71.7978 55.2301 71.6602 55.3875C71.5299 55.5552 71.3642 55.7251 71.1725 55.9037C70.9773 56.0752 70.7549 56.2563 70.5002 56.4166C70.3731 56.4973 70.2378 56.5731 70.1005 56.6547C69.961 56.7312 69.8102 56.7894 69.6595 56.8585C69.5091 56.9293 69.3526 56.992 69.1885 57.0361C69.0262 57.0867 68.8608 57.1366 68.6925 57.1814C68.3542 57.2515 68.0042 57.3104 67.655 57.3395L67.1306 57.3517C66.9562 57.36 66.7827 57.3536 66.6134 57.3305C66.4432 57.3142 66.2749 57.2944 66.1094 57.271C65.9434 57.2509 65.7805 57.2304 65.6256 57.1824C65.313 57.103 65.0134 57.0208 64.7354 56.9312C64.4637 56.8195 64.2112 56.7075 63.9818 56.6C63.8682 56.5443 63.7594 56.4912 63.656 56.4406C63.5581 56.3782 63.465 56.3193 63.3776 56.264C63.2042 56.152 63.0582 56.0448 62.9382 55.9593C62.6992 55.7862 62.5725 55.6729 62.5725 55.6729C62.5725 55.6729 62.7488 55.672 63.0397 55.695C63.185 55.7075 63.361 55.7193 63.5565 55.744C63.6538 55.7568 63.7571 55.7705 63.8659 55.7849C63.9754 55.7923 64.0909 55.8 64.2109 55.808C64.4493 55.8269 64.703 55.8521 64.9674 55.8854C65.2346 55.8982 65.5136 55.9078 65.7974 55.9321C66.0816 55.9638 66.3741 55.9318 66.6678 55.951C66.8154 55.9622 66.9626 55.9488 67.1094 55.9408L67.552 55.9206C67.7011 55.9248 67.8442 55.8899 67.9901 55.8774C68.1344 55.8557 68.2826 55.8544 68.4246 55.8294C68.7043 55.7654 68.9939 55.7446 69.2586 55.6656C69.3939 55.6333 69.5274 55.6016 69.6576 55.5702C69.7856 55.5312 69.9101 55.4893 70.0355 55.4553C70.1635 55.4256 70.2768 55.3737 70.3939 55.3344C70.5088 55.2918 70.6269 55.2592 70.7306 55.2112C70.9443 55.1245 71.145 55.0438 71.3184 54.9597C71.4976 54.8829 71.647 54.8019 71.777 54.7389C71.8989 54.6678 72.0067 54.6198 72.0714 54.5779C72.1411 54.5382 72.1782 54.5168 72.1782 54.5168Z" fill="#1A141C"/>
<path d="M67.543 60.1616C67.3683 61.2778 66.8528 62.1242 66.392 62.0518C65.9309 61.9798 65.6989 61.0163 65.8736 59.9002C66.0483 58.784 66.5638 57.9376 67.0246 58.0099C67.4858 58.0822 67.7178 59.0454 67.543 60.1616Z" fill="#1A141C"/>
<path d="M77.6822 61.9405C77.5075 63.0566 76.992 63.903 76.5312 63.8307C76.0701 63.7587 75.8381 62.7952 76.0128 61.679C76.1875 60.5629 76.703 59.7165 77.1638 59.7888C77.625 59.8608 77.857 60.8243 77.6822 61.9405Z" fill="#1A141C"/>
<path d="M65.063 61.0982C65.063 61.0982 65.0755 61.1968 65.0976 61.3692C65.1171 61.5411 65.1587 61.7849 65.2157 62.0713C65.2458 62.2144 65.2838 62.367 65.3264 62.526C65.3728 62.6838 65.4307 62.846 65.5018 63.0032C65.5757 63.1577 65.6678 63.3088 65.7846 63.4204C65.903 63.5235 66.04 63.6115 66.1955 63.6054C66.32 63.6128 66.4829 63.5385 66.6141 63.4339C66.7475 63.3254 66.8742 63.1961 66.9834 63.0569C67.2038 62.7792 67.3805 62.4864 67.5286 62.2336C67.6736 61.9785 67.7955 61.7628 67.8723 61.6076C67.9523 61.4531 67.9981 61.3648 67.9981 61.3648C67.9981 61.3648 67.9293 61.7593 67.713 62.3219C67.6022 62.6016 67.455 62.9241 67.2352 63.2435C67.1232 63.4009 66.9974 63.5641 66.8291 63.7014C66.6598 63.8345 66.4522 63.9644 66.1757 63.96C65.929 63.9584 65.704 63.8179 65.543 63.6636C65.3795 63.5017 65.2909 63.3065 65.2144 63.1248C65.1411 62.9404 65.1005 62.7571 65.0685 62.5843C65.0384 62.4115 65.023 62.2473 65.0141 62.0963C64.9875 61.4921 65.063 61.0982 65.063 61.0982Z" fill="#59221E"/>
<path d="M75.4688 62.9658C75.4688 62.9658 75.481 63.0528 75.5018 63.2051C75.5187 63.3568 75.5584 63.5725 75.6042 63.8262C75.6538 64.079 75.7155 64.3741 75.8234 64.6624C75.873 64.8083 75.9488 64.9443 76.032 65.0618C76.1229 65.1667 76.2208 65.2656 76.3443 65.2694L76.3661 65.2762L76.3715 65.2781L76.3741 65.279C76.3802 65.2794 76.327 65.2781 76.3504 65.2787H76.3523L76.3686 65.2781L76.4339 65.2755C76.4733 65.2717 76.5325 65.2778 76.5469 65.2614C76.5706 65.2502 76.5939 65.2419 76.6198 65.2358L76.7066 65.1824C76.767 65.1514 76.816 65.0886 76.8736 65.0458C76.9216 64.9866 76.976 64.9357 77.0189 64.8717C77.1994 64.6256 77.3334 64.3565 77.4438 64.1242C77.5504 63.8896 77.6406 63.6899 77.6928 63.5466C77.7491 63.4035 77.7814 63.3219 77.7814 63.3219C77.7814 63.3219 77.7795 63.4106 77.76 63.5638C77.737 63.7162 77.7085 63.937 77.6358 64.1939C77.5648 64.4512 77.4624 64.7504 77.2774 65.0483C77.1827 65.1946 77.0707 65.3488 76.9014 65.465C76.8579 65.4931 76.8166 65.5222 76.7693 65.5482C76.7133 65.5702 76.6547 65.5901 76.5965 65.6074C76.5309 65.6304 76.4998 65.6218 76.4528 65.6278L76.3875 65.632L76.3712 65.633L76.3414 65.6326L76.3363 65.6317L76.3258 65.6294L76.2838 65.6202C76.0467 65.5926 75.8746 65.4182 75.7555 65.2653C75.641 65.1018 75.5741 64.927 75.5267 64.761C75.4749 64.5949 75.4502 64.4317 75.431 64.2784C75.4106 64.1251 75.4032 63.9802 75.4016 63.8467C75.3949 63.5802 75.4192 63.3594 75.4326 63.2058C75.4502 63.0525 75.4688 62.9658 75.4688 62.9658Z" fill="#59221E"/>
<path d="M129.184 143.743H86.0704L102.384 108.111H145.498L129.184 143.743Z" fill="#352C38"/>
<path d="M92.0422 139.901H62.0374V143.744H92.0422V139.901Z" fill="#352C38"/>
<path d="M132.097 143.743H88.9837L105.297 108.111H148.411L132.097 143.743Z" fill="#765E69"/>
</svg>
