<svg width="48" height="48" viewBox="0 0 48 48" fill="none" xmlns="http://www.w3.org/2000/svg">
<path fill-rule="evenodd" clip-rule="evenodd" d="M20 17.75C20 16.2312 21.2312 15 22.75 15H25.25C26.7688 15 28 16.2312 28 17.75V18H31.25C31.6642 18 32 18.3358 32 18.75C32 19.1642 31.6642 19.5 31.25 19.5H30.9595L30.3538 30.4025C30.2728 31.8598 29.0675 33 27.608 33H20.392C18.9325 33 17.7272 31.8598 17.6462 30.4025L17.0405 19.5H16.75C16.3358 19.5 16 19.1642 16 18.75C16 18.3358 16.3358 18 16.75 18H20V17.75ZM18.5428 19.5L19.1439 30.3193C19.1807 30.9817 19.7286 31.5 20.392 31.5H27.608C28.2714 31.5 28.8193 30.9817 28.8561 30.3193L29.4572 19.5H18.5428ZM26.5 18H21.5V17.75C21.5 17.0596 22.0596 16.5 22.75 16.5H25.25C25.9404 16.5 26.5 17.0596 26.5 17.75V18ZM21.75 22C22.1642 22 22.5 22.3358 22.5 22.75V28.25C22.5 28.6642 22.1642 29 21.75 29C21.3358 29 21 28.6642 21 28.25V22.75C21 22.3358 21.3358 22 21.75 22ZM26.25 22C26.6642 22 27 22.3358 27 22.75V28.25C27 28.6642 26.6642 29 26.25 29C25.8358 29 25.5 28.6642 25.5 28.25V22.75C25.5 22.3358 25.8358 22 26.25 22Z" fill="#EB5757"/>
</svg>
