<svg width="32" height="32" viewBox="0 0 32 32" fill="none" xmlns="http://www.w3.org/2000/svg">
<path fill-rule="evenodd" clip-rule="evenodd" d="M10.75 16C10.75 16.8284 10.0784 17.5 9.25 17.5C8.42157 17.5 7.75 16.8284 7.75 16C7.75 15.1716 8.42157 14.5 9.25 14.5C10.0784 14.5 10.75 15.1716 10.75 16ZM17.5 16C17.5 16.8284 16.8284 17.5 16 17.5C15.1716 17.5 14.5 16.8284 14.5 16C14.5 15.1716 15.1716 14.5 16 14.5C16.8284 14.5 17.5 15.1716 17.5 16ZM22.75 17.5C23.5784 17.5 24.25 16.8284 24.25 16C24.25 15.1716 23.5784 14.5 22.75 14.5C21.9216 14.5 21.25 15.1716 21.25 16C21.25 16.8284 21.9216 17.5 22.75 17.5Z" fill="#4A545E"/>
</svg>
