<svg width="24" height="24" viewBox="0 0 24 24" fill="none" xmlns="http://www.w3.org/2000/svg">
<g clip-path="url(#clip0_17871_1488)">
<path d="M4 20C3.45 20 2.979 19.804 2.587 19.412C2.195 19.02 1.99934 18.5493 2 18V15H4V18H7V20H4ZM8.8 16L9.8 10.9L8 11.6V15H6V10.3L9.95 8.6C10.5333 8.35 10.9627 8.18767 11.238 8.113C11.5133 8.03833 11.7673 8.00067 12 8C12.35 8 12.675 8.09167 12.975 8.275C13.275 8.45833 13.5167 8.7 13.7 9L14.7 10.6L14.9 10.9C14.9667 11 15.0417 11.0917 15.125 11.175C14.3083 11.7083 13.6333 12.396 13.1 13.238C12.5667 14.08 12.225 15.0007 12.075 16H8.8ZM13.5 7.5C12.95 7.5 12.479 7.304 12.087 6.912C11.695 6.52 11.4993 6.04934 11.5 5.5C11.5 4.95 11.696 4.479 12.088 4.087C12.48 3.695 12.9507 3.49934 13.5 3.5C14.05 3.5 14.521 3.696 14.913 4.088C15.305 4.48 15.5007 4.95067 15.5 5.5C15.5 6.05 15.304 6.521 14.912 6.913C14.52 7.305 14.0493 7.50067 13.5 7.5ZM2 5V2C2 1.45 2.196 0.979002 2.588 0.587002C2.98 0.195002 3.45067 -0.000664969 4 1.69779e-06H7V2H4V5H2ZM20 5V2H17V1.69779e-06H20C20.55 1.69779e-06 21.021 0.196002 21.413 0.588002C21.805 0.980002 22.0007 1.45067 22 2V5H20ZM19 22C17.6167 22 16.4373 21.5123 15.462 20.537C14.4867 19.5617 13.9993 18.3827 14 17C14 15.6167 14.4877 14.4373 15.463 13.462C16.4383 12.4867 17.6173 11.9993 19 12C20.3833 12 21.5627 12.4877 22.538 13.463C23.5133 14.4383 24.0007 15.6173 24 17C24 18.3833 23.5123 19.5627 22.537 20.538C21.5617 21.5133 20.3827 22.0007 19 22ZM18.5 18H19.5V14H18.5V18ZM19 20C19.1333 20 19.25 19.95 19.35 19.85C19.45 19.75 19.5 19.6333 19.5 19.5C19.5 19.3667 19.45 19.25 19.35 19.15C19.25 19.05 19.1333 19 19 19C18.8667 19 18.75 19.05 18.65 19.15C18.55 19.25 18.5 19.3667 18.5 19.5C18.5 19.6333 18.55 19.75 18.65 19.85C18.75 19.95 18.8667 20 19 20Z" fill="#FF630B"/>
</g>
<defs>
<clipPath id="clip0_17871_1488">
<rect width="24" height="24" fill="white"/>
</clipPath>
</defs>
</svg>
