<svg width="24" height="24" viewBox="0 0 24 24" fill="none" xmlns="http://www.w3.org/2000/svg">
<path d="M13.5075 2.25H11.205C10.753 2.24985 10.3095 2.37198 9.92127 2.60344C9.53308 2.8349 9.21475 3.16707 9 3.56475V11.3325H15.762V3.6765C15.5594 3.24997 15.2401 2.88958 14.8411 2.63711C14.4421 2.38463 13.9797 2.25041 13.5075 2.25ZM14.01 8.9025H13.2825V9.63C13.2825 9.87466 13.1853 10.1093 13.0123 10.2823C12.8393 10.4553 12.6047 10.5525 12.36 10.5525C12.1153 10.5525 11.8807 10.4553 11.7077 10.2823C11.5347 10.1093 11.4375 9.87466 11.4375 9.63V8.9025H10.71C10.215 8.9025 9.8115 8.514 9.789 8.02425C9.79768 7.78504 9.89825 7.55839 10.0698 7.39146C10.2413 7.22452 10.4706 7.13016 10.71 7.128H11.4375V6.3855C11.4375 5.86425 11.85 5.4435 12.36 5.4435C12.87 5.4435 13.2825 5.86425 13.2825 6.3855V7.128H14.01C14.505 7.128 14.9085 7.5315 14.9318 8.02425C14.9204 8.26103 14.8183 8.48435 14.6467 8.64788C14.475 8.8114 14.2471 8.90258 14.01 8.9025ZM20.0925 11.3325H16.512V3.84825C18.57 4.422 20.0865 6.34575 20.0925 8.62725V11.331V11.3325ZM8.25 11.3325V3.8325C6.159 4.386 4.62 6.32475 4.62 8.62725V11.331H8.25V11.3325ZM4.5675 12.045H20.13C21 12.045 21.6975 12.7425 21.6975 13.6125C21.6975 14.475 20.9925 15.18 20.13 15.18H18.639V16.5225C18.639 17.9385 18.171 19.245 17.3805 20.2965C17.4773 20.6318 17.394 21.0083 17.1307 21.273C16.5057 21.9042 15.7615 22.405 14.9414 22.7465C14.1213 23.0879 13.2416 23.2631 12.3533 23.262C11.4656 23.2616 10.5868 23.086 9.76723 22.7452C8.94765 22.4044 8.20342 21.9051 7.57725 21.276C7.45128 21.1503 7.36138 20.9931 7.31692 20.8208C7.27246 20.6485 7.27507 20.4674 7.3245 20.2965C6.50571 19.2089 6.06388 17.8839 6.066 16.5225V15.18H4.5675C3.705 15.18 3 14.475 3 13.6125C3 12.75 3.705 12.045 4.5675 12.045ZM17.556 16.5225V15.18H7.149V16.5225C7.149 17.6685 7.5195 18.7275 8.14725 19.587C8.44425 19.5472 8.75475 19.6418 8.98275 19.8698C9.42431 20.3141 9.94932 20.6668 10.5276 20.9076C11.1059 21.1484 11.7261 21.2726 12.3525 21.273C13.668 21.273 14.8567 20.7405 15.72 19.872C15.9472 19.6425 16.26 19.5472 16.5577 19.587C17.2077 18.6976 17.5571 17.6241 17.5553 16.5225H17.556Z" fill="#D69200"/>
</svg>
