<svg width="40" height="40" viewBox="0 0 40 40" fill="none" xmlns="http://www.w3.org/2000/svg">
<path fill-rule="evenodd" clip-rule="evenodd" d="M32 0C32.8284 0 33.5 0.671573 33.5 1.5V6.50024H38.5C39.3284 6.50024 40 7.17182 40 8.00024C40 8.82867 39.3284 9.50024 38.5 9.50024H33.5V14.5C33.5 15.3284 32.8284 16 32 16C31.1716 16 30.5 15.3284 30.5 14.5V9.50024H25.5C24.6716 9.50024 24 8.82867 24 8.00024C24 7.17182 24.6716 6.50024 25.5 6.50024H30.5V1.5C30.5 0.671573 31.1716 0 32 0ZM2 7.5C2 4.46243 4.46243 2 7.5 2H18.5C19.3284 2 20 2.67157 20 3.5C20 4.32843 19.3284 5 18.5 5H7.5C6.11929 5 5 6.11929 5 7.5V21.9836L13.0452 15.3432C13.6501 14.8439 14.5376 14.8949 15.0812 15.4603L21.243 21.8686L28.1679 17.2519C28.7468 16.8661 29.5149 16.9288 30.0235 17.4034L37.5235 24.4034C37.8274 24.6871 38 25.0842 38 25.5V32.5C38 35.5376 35.5376 38 32.5 38H7.5C4.46243 38 2 35.5376 2 32.5V7.5ZM23.3556 24.0657L27.5812 28.4603C28.1554 29.0575 28.1368 30.0071 27.5397 30.5812C26.9425 31.1554 25.9929 31.1368 25.4188 30.5397L13.8825 18.542L5 25.8735V32.5C5 33.8807 6.11929 35 7.5 35H32.5C33.8807 35 35 33.8807 35 32.5V26.1518L28.8443 20.4065L23.3556 24.0657Z" fill="#272E35"/>
</svg>
