<svg width="20" height="20" viewBox="0 0 20 20" fill="none" xmlns="http://www.w3.org/2000/svg">
<g clip-path="url(#clip0_18065_4218)">
<path d="M13.2003 3.33334C13.6126 3.33333 14.0185 3.43527 14.3818 3.6301C14.7452 3.82493 15.0547 4.1066 15.2828 4.45001L15.3703 4.59334L17.032 7.50001H18.0003C18.0772 7.49999 18.1517 7.52653 18.2112 7.57512C18.2707 7.62372 18.3116 7.69139 18.327 7.76668L18.3337 7.83334V8.22918C18.3338 8.36236 18.294 8.49252 18.2194 8.60288C18.1448 8.71324 18.0389 8.79873 17.9153 8.84834L17.8087 8.88168C18.1209 9.53017 18.2599 10.2485 18.212 10.9667L18.1895 11.2058L17.5853 16.04C17.5378 16.4207 17.3604 16.7734 17.083 17.0384C16.8056 17.3035 16.4453 17.4648 16.0628 17.495L15.9312 17.5H15.0003C14.5798 17.5001 14.1749 17.3413 13.8665 17.0554C13.5582 16.7695 13.3694 16.3776 13.3378 15.9583L13.3337 15.8333H6.66699C6.66713 16.2538 6.50832 16.6588 6.22241 16.9671C5.9365 17.2755 5.54462 17.4643 5.12533 17.4958L5.00033 17.5H4.06949C3.68574 17.5002 3.31367 17.368 3.01609 17.1257C2.71852 16.8834 2.51368 16.5459 2.43616 16.17L2.41533 16.04L1.81116 11.2067C1.72188 10.4918 1.8195 9.76593 2.09449 9.10001L2.19199 8.88084L2.17199 8.87668C2.04268 8.84442 1.926 8.77414 1.83702 8.67491C1.74805 8.57568 1.69085 8.45206 1.67283 8.32001L1.66699 8.22918V7.83334C1.66698 7.7565 1.69351 7.68201 1.74211 7.62248C1.7907 7.56296 1.85837 7.52205 1.93366 7.50668L2.00033 7.50001H2.96949L4.63033 4.59334C4.83491 4.23528 5.12488 3.93339 5.47442 3.71456C5.82396 3.49574 6.2222 3.36678 6.63366 3.33918L6.80033 3.33334H13.2003ZM16.467 10.03C16.0361 10.5022 15.4384 10.7882 14.8003 10.8275L14.6287 10.8333H5.37199C5.02653 10.8356 4.68446 10.7652 4.36792 10.6268C4.05138 10.4885 3.76744 10.2851 3.53449 10.03C3.4657 10.2817 3.43673 10.5427 3.44866 10.8033L3.46533 10.9992L4.06949 15.8333H5.00033V15C5.00035 14.7959 5.07529 14.5989 5.21092 14.4464C5.34655 14.2938 5.53345 14.1964 5.73616 14.1725L5.83366 14.1667H14.167C14.3711 14.1667 14.5681 14.2416 14.7206 14.3773C14.8732 14.5129 14.9706 14.6998 14.9945 14.9025L15.0003 15V15.8333H15.9312L16.5353 10.9992C16.577 10.6725 16.5528 10.3433 16.467 10.03ZM4.78116 11.5817L7.06699 12.8167C7.37782 12.985 7.24866 13.4575 6.89533 13.4433L4.96699 13.3658C4.75195 13.3572 4.54858 13.2658 4.39946 13.1106C4.25034 12.9554 4.16704 12.7486 4.16699 12.5333V11.95C4.16695 11.8778 4.18567 11.8069 4.22131 11.7441C4.25694 11.6813 4.30828 11.6289 4.37028 11.5919C4.43229 11.5549 4.50284 11.5347 4.57501 11.5332C4.64718 11.5317 4.71851 11.549 4.78199 11.5833L4.78116 11.5817ZM15.8328 11.9483V12.5325C15.833 12.7479 15.7498 12.9549 15.6006 13.1103C15.4515 13.2656 15.248 13.3572 15.0328 13.3658L13.1045 13.4425C12.7512 13.4567 12.6212 12.9842 12.9328 12.8158L15.2178 11.5825C15.2813 11.5481 15.3526 11.5309 15.4248 11.5324C15.497 11.5339 15.5675 11.5541 15.6295 11.5911C15.6915 11.628 15.7429 11.6805 15.7785 11.7432C15.8141 11.806 15.8329 11.8762 15.8328 11.9483ZM13.2003 5.00001H6.80033C6.65344 5.00006 6.50917 5.03893 6.38215 5.11269C6.25512 5.18644 6.14985 5.29247 6.07699 5.42001L4.64866 7.92001C4.57628 8.04673 4.53844 8.19023 4.53893 8.33616C4.53943 8.48209 4.57823 8.62533 4.65147 8.75156C4.72471 8.87778 4.8298 8.98256 4.95625 9.05541C5.0827 9.12826 5.22606 9.16663 5.37199 9.16668H14.6287C14.7746 9.16663 14.918 9.12826 15.0444 9.05541C15.1708 8.98256 15.2759 8.87778 15.3492 8.75156C15.4224 8.62533 15.4612 8.48209 15.4617 8.33616C15.4622 8.19023 15.4244 8.04673 15.352 7.92001L13.9237 5.42001C13.8507 5.29234 13.7453 5.18624 13.6181 5.11248C13.491 5.03871 13.3465 4.99991 13.1995 5.00001H13.2003Z" fill="#4A545E"/>
</g>
<defs>
<clipPath id="clip0_18065_4218">
<rect width="20" height="20" fill="white"/>
</clipPath>
</defs>
</svg>
