<svg width="20" height="20" viewBox="0 0 20 20" fill="none" xmlns="http://www.w3.org/2000/svg">
<path fill-rule="evenodd" clip-rule="evenodd" d="M10.2462 2.52564C10.0837 2.49145 9.91629 2.49145 9.75375 2.52564C9.59653 2.55871 9.43202 2.64238 8.82435 2.98729L3.94728 5.75546C3.78909 5.84524 3.69946 5.89649 3.63414 5.93903C3.58464 5.97128 3.57234 5.98399 3.57258 5.98392C3.57262 5.98391 3.57301 5.98354 3.57363 5.98285C3.54804 6.0113 3.52749 6.04641 3.51463 6.08634C3.50859 6.10508 3.49999 6.14022 3.49999 6.5444V9.68765C3.49999 11.9967 4.66005 14.1325 6.55218 15.3407L9.55984 17.2612C9.72076 17.3639 9.81256 17.4221 9.88403 17.4616C9.92573 17.4847 9.94523 17.4925 9.95086 17.4945C9.9833 17.5018 10.0167 17.5018 10.0491 17.4945C10.0547 17.4925 10.0742 17.4847 10.1159 17.4616C10.1874 17.4221 10.2792 17.3639 10.4401 17.2612L13.4478 15.3406C15.3399 14.1325 16.5 11.9967 16.5 9.68765V6.5444C16.5 6.14022 16.4914 6.10508 16.4853 6.08634C16.4725 6.04641 16.4519 6.01131 16.4264 5.98286C16.4225 5.97921 16.4071 5.96591 16.3658 5.93904C16.3005 5.89649 16.2109 5.84524 16.0527 5.75546L11.1756 2.98729C10.568 2.64238 10.4034 2.55871 10.2462 2.52564ZM10.0473 17.4951C10.0473 17.4951 10.0478 17.4949 10.0488 17.4946L10.0473 17.4951ZM9.95265 17.4951C9.95262 17.4951 9.95216 17.495 9.95118 17.4946L9.95265 17.4951ZM9.44502 1.05775C9.81115 0.980748 10.1888 0.980748 10.555 1.05775C10.9706 1.14517 11.3504 1.36113 11.8303 1.63402C11.8585 1.65008 11.8871 1.66633 11.916 1.68277L16.7931 4.45094C16.8129 4.46214 16.8327 4.47336 16.8527 4.48464C17.0923 4.61989 17.3474 4.76389 17.5416 4.97972C17.7099 5.16686 17.8362 5.38756 17.9131 5.62644C18.0013 5.90032 18.0007 6.193 18.0001 6.47496C18 6.49819 18 6.52134 18 6.5444V9.68765C18 12.496 16.5894 15.1143 14.2551 16.6049L11.2474 18.5254C11.227 18.5384 11.2066 18.5516 11.1859 18.5648C10.9445 18.7198 10.6845 18.8868 10.3902 18.9552C10.1334 19.0149 9.86661 19.0149 9.60982 18.9552C9.31545 18.8868 9.05545 18.7198 8.81402 18.5648C8.79341 18.5515 8.77293 18.5384 8.75257 18.5254L5.74492 16.6049C3.41059 15.1143 1.99999 12.496 1.99999 9.68765V6.5444C1.99999 6.52134 1.99994 6.49818 1.99989 6.47496C1.99928 6.193 1.99865 5.90032 2.08687 5.62644C2.16382 5.38756 2.29007 5.16686 2.4584 4.97972C2.65253 4.76389 2.90764 4.61989 3.14726 4.48464C3.16724 4.47336 3.18712 4.46214 3.20685 4.45094L8.08392 1.68277C8.11288 1.66633 8.14147 1.65008 8.16971 1.63402C8.64962 1.36113 9.0294 1.14517 9.44502 1.05775Z" fill="#4A545E"/>
</svg>
